<svg height="512pt" viewBox="0 0 512 512" width="512pt" xmlns="http://www.w3.org/2000/svg"><path d="m512 120v-120h-160v120h60v101.363281c-6.066406 3.511719-11.125 8.570313-14.636719 14.636719h-84.804687c-8.253906-23.277344-30.484375-40-56.558594-40s-48.304688 16.722656-56.558594 40h-84.804687c-3.320313-5.730469-8.011719-10.566406-13.636719-14.042969v-101.957031h59v-120h-160v120h61v100.792969c-12.503906 6.765625-21 19.992187-21 35.207031s8.496094 28.441406 21 35.207031v100.792969h-61v120h160v-120h-59v-101.957031c5.625-3.476563 10.316406-8.3125 13.636719-14.042969h84.804687c8.253906 23.277344 30.484375 40 56.558594 40s48.304688-16.722656 56.558594-40h84.804687c3.511719 6.066406 8.570313 11.125 14.636719 14.636719v101.363281h-60v120h160v-120h-60v-101.363281c11.953125-6.917969 20-19.832031 20-34.636719s-8.046875-27.71875-20-34.636719v-101.363281zm-472-80h80v40h-80zm80 432h-80v-40h80zm352 0h-80v-40h80zm-216-196c-11.027344 0-20-8.972656-20-20s8.972656-20 20-20 20 8.972656 20 20-8.972656 20-20 20zm136-236h80v40h-80zm0 0"/></svg>